<svg id="Capa_1" enable-background="new 0 0 512.018 512.018" height="512" viewBox="0 0 512.018 512.018" width="512" xmlns="http://www.w3.org/2000/svg"><g><path d="m143.009 248.008c0 27.334 22.497 49.512 49.947 48.991 26.826-.509 48.053-22.982 48.053-49.813v.822c0-26.475-21.168-49.353-49.555-49.156-26.871.186-48.445 22.285-48.445 49.156zm52.639-14.35c8.338-2.485 17.206 2.478 19.07 11.42 1.553 8.296-3.664 15.947-11.78 17.64-8.325 1.558-15.963-3.701-17.64-11.78-1.372-7.296 2.474-14.713 10.35-17.28z"/><path d="m505.619 379.725-45.385-31.815c2.201-12.621 2.775-25.231 2.775-36.903 0-14.905-3.629-28.179-10.803-39.671l43.597-26.513c6.251-3.801 8.848-11.558 6.146-18.357l-28.959-72.852c16.894-9.916 30.167-26.065 35.97-46.338 11.987-41.879-12.331-85.702-54.21-97.69-7.878-2.254-16.107 2.229-18.483 10.072l-14.497 47.852-45.933-13.94c-8.018-2.434-16.473 2.179-18.777 10.226-15.787 55.155 30.976 108.417 87.635 99.854l24.696 62.125-38.46 23.388c-8.8-6.287-19.383-11.532-31.921-15.862v14.707c0 43.561-35.439 79-79 79-26.306 0-49.634-12.936-64-32.768-14.366 19.832-37.694 32.768-64 32.768-43.561 0-79-35.439-79-79v-14.707c-12.539 4.331-23.121 9.575-31.921 15.862l-38.46-23.388 24.695-62.125c56.727 8.574 103.408-44.753 87.635-99.854-2.307-8.056-10.767-12.656-18.777-10.226l-45.932 13.941-14.498-47.852c-2.376-7.843-10.608-12.328-18.484-10.072-41.879 11.988-66.197 55.811-54.209 97.69 5.804 20.275 19.075 36.424 35.969 46.339l-28.959 72.85c-2.703 6.799-.106 14.556 6.145 18.357l43.597 26.513c-7.174 11.492-10.803 24.766-10.803 39.671 0 11.7.578 24.304 2.774 36.904l-45.383 31.814c-4.819 3.378-7.218 9.263-6.133 15.047l9 48c1.529 8.154 9.373 13.502 17.507 11.979 8.143-1.527 13.506-9.365 11.979-17.507l-7.219-38.501 29.404-20.612c4.991 10.804 11.997 21.005 21.8 29.936l-13.334 13.335c-3.426 3.425-4.986 8.294-4.189 13.072l8 48c1.223 7.337 7.578 12.537 14.778 12.537 9.311 0 16.333-8.352 14.814-17.468l-6.731-40.386 12.17-12.17c8.285 3.977 17.358 7.251 26.973 9.94l-2.845 3.319c-3.636 4.24-4.614 10.149-2.54 15.334l16 40c3.062 7.656 11.772 11.446 19.498 8.356 7.692-3.077 11.433-11.806 8.356-19.498l-12.625-31.563 7.713-8.996c47.093 6.943 126.71 6.896 174.428-.049l7.755 9.045-12.625 31.563c-3.077 7.692.664 16.421 8.355 19.498 7.74 3.097 16.441-.715 19.498-8.356l16-40c2.074-5.186 1.096-11.094-2.539-15.334l-2.839-3.312c10.05-2.8 18.995-6.111 26.96-9.954l12.177 12.177-6.731 40.386c-1.524 9.142 5.525 17.468 14.813 17.468 7.2 0 13.556-5.2 14.778-12.537l8-48c.796-4.778-.764-9.647-4.189-13.072l-13.36-13.36c9.808-8.928 16.838-19.114 21.83-29.907l29.399 20.608-7.219 38.501c-1.526 8.142 3.837 15.98 11.979 17.507 8.105 1.52 15.975-3.802 17.508-11.979l9-48c1.084-5.784-1.315-11.668-6.134-15.047z"/><path d="m320.956 296.999c26.826-.509 48.053-22.982 48.053-49.813v.822c0-26.51-21.207-49.158-49-49.158-27.807 0-49 22.662-49 49.158 0 27.248 22.412 49.514 49.947 48.991zm-13.298-63.341c8.191-2.496 17.169 2.395 19.061 11.42 1.554 8.303-3.646 15.946-11.78 17.64-8.256 1.547-15.948-3.63-17.64-11.78-1.411-7.539 2.724-14.844 10.359-17.28z"/></g></svg>